<?xml version="1.0" encoding="UTF-8"?>
<svg id="_레이어_1" data-name="레이어_1" xmlns="http://www.w3.org/2000/svg" version="1.1" viewBox="0 0 14 12">
  <!-- Generator: Adobe Illustrator 29.2.1, SVG Export Plug-In . SVG Version: 2.1.0 Build 116)  -->
  <defs>
    <style>
      .st0, .st1 {
        fill: none;
      }

      .st0, .st1, .st2 {
        stroke: #000;
        stroke-linejoin: round;
        stroke-width: .5px;
      }

      .st1 {
        stroke-linecap: round;
      }

      .st2 {
        fill: #fff;
      }
    </style>
  </defs>
  <g>
    <polygon class="st2" points="-68.24 -6.67 -68.24 2.5 -63 1.49 -63 -8 -68.24 -6.67"/>
    <polygon class="st2" points="-74 -8 -74 1.53 -68.24 2.5 -68.24 -6.67 -74 -8"/>
  </g>
  <g>
    <polygon class="st0" points=".39 .42 .39 10.45 7 11.62 7 1.59 .39 .42"/>
    <line class="st1" x1="1.83" y1="2.74" x2="5.68" y2="3.42"/>
    <line class="st1" x1="1.83" y1="5.84" x2="5.68" y2="6.52"/>
    <line class="st1" x1="1.83" y1="8.93" x2="5.68" y2="9.62"/>
    <polygon class="st0" points="13.62 .42 13.62 10.45 7.01 11.62 7.01 1.59 13.62 .42"/>
    <line class="st1" x1="12.18" y1="2.74" x2="8.32" y2="3.42"/>
    <line class="st1" x1="12.18" y1="5.84" x2="8.32" y2="6.52"/>
    <line class="st1" x1="12.18" y1="8.93" x2="8.32" y2="9.62"/>
  </g>
</svg>