<svg width="20" height="21" viewBox="0 0 20 21" fill="none" xmlns="http://www.w3.org/2000/svg">
<g clip-path="url(#clip0_7_49)">
<path d="M0.833336 1.33334H4.16667L6.4 12.4917C6.47621 12.8753 6.68493 13.22 6.98962 13.4653C7.29432 13.7105 7.67558 13.8408 8.06667 13.8333H16.1667C16.5578 13.8408 16.939 13.7105 17.2437 13.4653C17.5484 13.22 17.7571 12.8753 17.8333 12.4917L19.1667 5.50001H5M8.33334 18C8.33334 18.4602 7.96024 18.8333 7.5 18.8333C7.03977 18.8333 6.66667 18.4602 6.66667 18C6.66667 17.5398 7.03977 17.1667 7.5 17.1667C7.96024 17.1667 8.33334 17.5398 8.33334 18ZM17.5 18C17.5 18.4602 17.1269 18.8333 16.6667 18.8333C16.2064 18.8333 15.8333 18.4602 15.8333 18C15.8333 17.5398 16.2064 17.1667 16.6667 17.1667C17.1269 17.1667 17.5 17.5398 17.5 18Z" stroke="white" stroke-width="2" stroke-linecap="round" stroke-linejoin="round"/>
</g>
<defs>
<clipPath id="clip0_7_49">
<rect width="20" height="20" fill="white" transform="translate(0 0.5)"/>
</clipPath>
</defs>
</svg>
